<?xml version="1.0" standalone="no"?>
<!DOCTYPE svg PUBLIC "-//W3C//DTD SVG 20010904//EN"
 "http://www.w3.org/TR/2001/REC-SVG-20010904/DTD/svg10.dtd">
<svg version="1.0" xmlns="http://www.w3.org/2000/svg"
 width="256.000000pt" height="256.000000pt" viewBox="0 0 256.000000 256.000000"
 preserveAspectRatio="xMidYMid meet">

<g transform="translate(0.000000,256.000000) scale(0.100000,-0.100000)"
fill="#000000" stroke="none">
<path d="M1250 1950 c-641 -247 -1176 -455 -1189 -462 -57 -30 -76 -108 -42
-164 21 -35 37 -41 411 -180 102 -37 186 -68 187 -69 1 0 50 -154 107 -340 58
-187 110 -350 116 -363 13 -29 67 -62 103 -62 41 0 54 9 235 157 90 73 172
133 183 133 11 0 143 -90 295 -201 319 -232 330 -239 367 -239 40 0 84 26 101
59 14 25 436 2030 436 2067 0 57 -60 114 -117 114 -15 0 -552 -203 -1193 -450z
m1204 342 c6 -11 -410 -2012 -422 -2024 -5 -5 -110 65 -273 183 -337 245 -343
249 -395 249 -23 0 -50 -3 -59 -7 -10 -3 -94 -69 -188 -145 -136 -111 -173
-136 -182 -126 -6 7 -60 171 -119 363 -60 193 -113 355 -120 362 -6 6 -126 54
-266 106 -336 125 -336 125 -322 139 10 10 2313 905 2334 907 4 1 9 -3 12 -7z"/>
<path d="M1429 1644 c-283 -173 -532 -328 -553 -342 -41 -28 -75 -88 -76 -134
0 -49 120 -452 142 -475 49 -53 121 -13 133 73 23 166 35 226 52 247 10 13
216 207 458 433 380 354 440 414 443 441 4 36 -28 73 -63 73 -12 0 -253 -142
-536 -316z m251 32 c0 -2 -143 -136 -319 -299 -205 -190 -324 -309 -335 -332
-10 -20 -23 -68 -29 -108 l-12 -71 -45 157 c-43 157 -44 158 -24 178 11 10
186 122 389 248 398 246 375 233 375 227z"/>
<path d="M2096 1287 c-9 -7 -20 -31 -23 -54 -5 -36 -2 -43 21 -58 24 -16 28
-16 50 -2 30 20 41 73 21 104 -17 26 -42 30 -69 10z"/>
<path d="M2036 1038 c-14 -23 -126 -526 -126 -566 0 -30 42 -57 69 -43 25 14
21 1 90 317 64 293 65 314 11 314 -20 0 -34 -7 -44 -22z"/>
</g>
</svg>
